<svg xmlns="http://www.w3.org/2000/svg" width="120" height="30" viewBox="0 0 26.641 6.24"><path d="M4.428 5.951H3.405V3.824H1.317v2.127H.29V.832h1.027v2.201h2.088V.832h1.023v5.119zm2.559.074c-.548 0-.987-.175-1.315-.527s-.492-.799-.492-1.34v-.14c0-.564.155-1.03.466-1.396.311-.366.728-.548 1.25-.545.513 0 .912.154 1.195.464s.425.728.425 1.255v.56H6.245l-.006.02c.019.25.103.455.251.616.149.161.351.242.606.242.228 0 .416-.023.566-.069.15-.045.314-.117.492-.216l.277.635a1.868 1.868 0 01-.607.315c-.251.084-.53.126-.837.126zm-.091-3.157c-.19 0-.34.072-.45.218a1.14 1.14 0 00-.204.573l.01.018h1.259v-.092c0-.218-.051-.392-.153-.521-.102-.131-.256-.196-.462-.196zm3.298 3.083H9.167V.467h1.027v5.484zm2.527.074c-.548 0-.987-.176-1.315-.527s-.492-.799-.492-1.34v-.14c0-.564.155-1.03.466-1.396.311-.366.728-.548 1.25-.545.513 0 .912.154 1.195.464.284.31.425.728.425 1.255v.56h-2.271l-.007.021c.019.25.103.455.251.616.149.161.351.242.606.242.228 0 .416-.023.566-.069.15-.045.314-.117.492-.216l.277.635a1.874 1.874 0 01-.608.315 2.633 2.633 0 01-.835.125zm-.091-3.157c-.19 0-.34.072-.45.218a1.14 1.14 0 00-.204.573l.01.018h1.259v-.092c0-.218-.051-.392-.153-.521-.102-.131-.256-.196-.462-.196zm3.157-.721l.045.545a1.4 1.4 0 01.469-.454 1.22 1.22 0 01.621-.161c.385 0 .686.12.9.362.216.241.324.619.324 1.135v2.377h-1.031V3.572c0-.256-.051-.438-.154-.544s-.259-.16-.467-.16a.751.751 0 00-.637.317v2.766H14.83V2.147h.957zm2.967 1.934c0-.601.13-1.084.389-1.452s.624-.552 1.096-.552c.189 0 .36.041.513.123s.286.199.401.352V.467h1.029v5.484h-.883l-.084-.464c-.119.176-.261.31-.424.4-.162.092-.35.138-.561.138-.467 0-.829-.172-1.088-.514s-.389-.795-.389-1.357v-.073zm1.023.074c0 .335.057.599.168.79.113.192.296.289.549.289.148 0 .277-.03.387-.091a.707.707 0 00.271-.264V3.25c-.07-.12-.16-.214-.27-.281s-.236-.101-.381-.101a.577.577 0 00-.551.336c-.116.224-.174.517-.174.877v.074zm3.041-.141c0-.566.158-1.031.475-1.394s.754-.543 1.314-.543c.562 0 1.004.181 1.322.541.318.361.479.826.479 1.396v.074c0 .572-.16 1.038-.477 1.397-.318.359-.757.54-1.316.54-.562 0-1.004-.181-1.32-.54-.318-.359-.477-.825-.477-1.397v-.074zm1.024.072c0 .347.061.624.182.834.123.209.319.314.592.314.264 0 .458-.105.581-.316s.185-.488.185-.832v-.073c0-.337-.062-.612-.186-.825-.125-.213-.32-.319-.588-.319-.265 0-.459.106-.582.321-.123.214-.184.488-.184.823v.073z"/></svg>